<svg xmlns="http://www.w3.org/2000/svg" xmlns:xlink="http://www.w3.org/1999/xlink" contentStyleType="text/css" data-diagram-type="CLASS" height="483px" preserveAspectRatio="none" style="width:1481px;height:483px;background:#FFFFFF;" version="1.1" viewBox="0 0 1481 483" width="1481px" zoomAndPan="magnify"><defs/><g><!--cluster Client (Browser)--><g class="cluster" data-entity="Client .Browser." data-source-line="9" data-uid="ent0002" id="cluster_Client .Browser."><path d="M8.5,6 L138.0566,6 A3.75,3.75 0 0 1 140.5566,8.5 L147.5566,28.2969 L1243.5,28.2969 A2.5,2.5 0 0 1 1246,30.7969 L1246,473.5 A2.5,2.5 0 0 1 1243.5,476 L8.5,476 A2.5,2.5 0 0 1 6,473.5 L6,8.5 A2.5,2.5 0 0 1 8.5,6" fill="none" style="stroke:#000000;stroke-width:1.5;"/><line style="stroke:#000000;stroke-width:1.5;" x1="6" x2="147.5566" y1="28.2969" y2="28.2969"/><text fill="#000000" font-family="sans-serif" font-size="14" font-weight="bold" lengthAdjust="spacing" textLength="128.5566" x="10" y="20.9951">Client (Browser)</text></g><!--cluster src--><g class="cluster" data-entity="src" data-source-line="11" data-uid="ent0005" id="cluster_src"><path d="M32.5,49 L57.0361,49 A3.75,3.75 0 0 1 59.5361,51.5 L66.5361,71.2969 L1219.5,71.2969 A2.5,2.5 0 0 1 1222,73.7969 L1222,449.5 A2.5,2.5 0 0 1 1219.5,452 L32.5,452 A2.5,2.5 0 0 1 30,449.5 L30,51.5 A2.5,2.5 0 0 1 32.5,49" fill="none" style="stroke:#000000;stroke-width:1.5;"/><line style="stroke:#000000;stroke-width:1.5;" x1="30" x2="66.5361" y1="71.2969" y2="71.2969"/><text fill="#000000" font-family="sans-serif" font-size="14" font-weight="bold" lengthAdjust="spacing" textLength="23.5361" x="34" y="63.9951">src</text></g><!--cluster ui--><g class="cluster" data-entity="ui" data-source-line="10" data-uid="ent0003" id="cluster_ui"><path d="M592.5,92 L608.2656,92 A3.75,3.75 0 0 1 610.7656,94.5 L617.7656,114.2969 L771.5,114.2969 A2.5,2.5 0 0 1 774,116.7969 L774,269.5 A2.5,2.5 0 0 1 771.5,272 L592.5,272 A2.5,2.5 0 0 1 590,269.5 L590,94.5 A2.5,2.5 0 0 1 592.5,92" fill="none" style="stroke:#000000;stroke-width:1.5;"/><line style="stroke:#000000;stroke-width:1.5;" x1="590" x2="617.7656" y1="114.2969" y2="114.2969"/><text fill="#000000" font-family="sans-serif" font-size="14" font-weight="bold" lengthAdjust="spacing" textLength="14.7656" x="594" y="106.9951">ui</text></g><!--cluster managers--><g class="cluster" data-entity="managers" data-source-line="20" data-uid="ent0006" id="cluster_managers"><path d="M56.5,304.5 L135.7031,304.5 A3.75,3.75 0 0 1 138.2031,307 L145.2031,326.7969 L774.5,326.7969 A2.5,2.5 0 0 1 777,329.2969 L777,417 A2.5,2.5 0 0 1 774.5,419.5 L56.5,419.5 A2.5,2.5 0 0 1 54,417 L54,307 A2.5,2.5 0 0 1 56.5,304.5" fill="none" style="stroke:#000000;stroke-width:1.5;"/><line style="stroke:#000000;stroke-width:1.5;" x1="54" x2="145.2031" y1="326.7969" y2="326.7969"/><text fill="#000000" font-family="sans-serif" font-size="14" font-weight="bold" lengthAdjust="spacing" textLength="78.2031" x="58" y="319.4951">managers</text></g><!--cluster storage--><g class="cluster" data-entity="storage" data-source-line="34" data-uid="ent0011" id="cluster_storage"><path d="M803.5,296 L865.0117,296 A3.75,3.75 0 0 1 867.5117,298.5 L874.5117,318.2969 L1195.5,318.2969 A2.5,2.5 0 0 1 1198,320.7969 L1198,425.5 A2.5,2.5 0 0 1 1195.5,428 L803.5,428 A2.5,2.5 0 0 1 801,425.5 L801,298.5 A2.5,2.5 0 0 1 803.5,296" fill="none" style="stroke:#000000;stroke-width:1.5;"/><line style="stroke:#000000;stroke-width:1.5;" x1="801" x2="874.5117" y1="318.2969" y2="318.2969"/><text fill="#000000" font-family="sans-serif" font-size="14" font-weight="bold" lengthAdjust="spacing" textLength="60.5117" x="805" y="310.9951">storage</text></g><!--cluster Server (Node--><g class="cluster" data-entity="Server .Node" data-source-line="48" data-uid="ent0016" id="cluster_Server .Node"><path d="M1272.5,65 L1377.6318,65 A3.75,3.75 0 0 1 1380.1318,67.5 L1387.1318,87.2969 L1471.5,87.2969 A2.5,2.5 0 0 1 1474,89.7969 L1474,449.5 A2.5,2.5 0 0 1 1471.5,452 L1272.5,452 A2.5,2.5 0 0 1 1270,449.5 L1270,67.5 A2.5,2.5 0 0 1 1272.5,65" fill="none" style="stroke:#000000;stroke-width:1.5;"/><line style="stroke:#000000;stroke-width:1.5;" x1="1270" x2="1387.1318" y1="87.2969" y2="87.2969"/><text fill="#000000" font-family="sans-serif" font-size="14" font-weight="bold" lengthAdjust="spacing" textLength="104.1318" x="1274" y="79.9951">Server (Node</text></g><!--cluster js)--><g class="cluster" data-entity="js." data-source-line="47" data-uid="ent0014" id="cluster_js."><path d="M1296.5,108 L1317.0303,108 A3.75,3.75 0 0 1 1319.5303,110.5 L1326.5303,130.2969 L1447.5,130.2969 A2.5,2.5 0 0 1 1450,132.7969 L1450,425.5 A2.5,2.5 0 0 1 1447.5,428 L1296.5,428 A2.5,2.5 0 0 1 1294,425.5 L1294,110.5 A2.5,2.5 0 0 1 1296.5,108" fill="none" style="stroke:#000000;stroke-width:1.5;"/><line style="stroke:#000000;stroke-width:1.5;" x1="1294" x2="1326.5303" y1="130.2969" y2="130.2969"/><text fill="#000000" font-family="sans-serif" font-size="14" font-weight="bold" lengthAdjust="spacing" textLength="19.5303" x="1298" y="122.9951">js)</text></g><!--class TaskTracker--><g class="entity" data-entity="TaskTracker" data-source-line="11" data-uid="ent0004" id="entity_TaskTracker"><rect fill="#F1F1F1" height="129.4844" rx="2.5" ry="2.5" style="stroke:#181818;stroke-width:0.5;" width="150.8584" x="606.5" y="127"/><ellipse cx="636.4695" cy="143" fill="#ADD1B2" rx="11" ry="11" style="stroke:#181818;stroke-width:1;"/><path d="M639.4383,148.6406 Q638.8602,148.9375 638.2195,149.0781 Q637.5789,149.2344 636.8758,149.2344 Q634.3758,149.2344 633.0477,147.5938 Q631.7352,145.9375 631.7352,142.8125 Q631.7352,139.6875 633.0477,138.0313 Q634.3758,136.375 636.8758,136.375 Q637.5789,136.375 638.2195,136.5313 Q638.8758,136.6875 639.4383,136.9844 L639.4383,139.7031 Q638.8133,139.125 638.2195,138.8594 Q637.6258,138.5781 637.0008,138.5781 Q635.657,138.5781 634.9695,139.6563 Q634.282,140.7188 634.282,142.8125 Q634.282,144.9063 634.9695,145.9844 Q635.657,147.0469 637.0008,147.0469 Q637.6258,147.0469 638.2195,146.7813 Q638.8133,146.5 639.4383,145.9219 L639.4383,148.6406 Z " fill="#000000"/><text fill="#000000" font-family="sans-serif" font-size="14" lengthAdjust="spacing" textLength="85.5928" x="653.7961" y="147.8467">TaskTracker</text><line style="stroke:#181818;stroke-width:0.5;" x1="607.5" x2="756.3584" y1="159" y2="159"/><text fill="#000000" font-family="sans-serif" font-size="14" font-weight="bold" lengthAdjust="spacing" textLength="96.5508" x="612.5" y="175.9951">TaskTracker</text><line style="stroke:#181818;stroke-width:1;" x1="607.5" x2="756.3584" y1="183.2969" y2="183.2969"/><text fill="#000000" font-family="sans-serif" font-size="14" lengthAdjust="spacing" textLength="44.7959" x="612.5" y="200.292">+init()</text><text fill="#000000" font-family="sans-serif" font-size="14" lengthAdjust="spacing" textLength="130.252" x="612.5" y="216.5889">+handleAddTask()</text><text fill="#000000" font-family="sans-serif" font-size="14" lengthAdjust="spacing" textLength="138.8584" x="612.5" y="232.8857">-getTaskId() : async</text><text fill="#000000" font-family="sans-serif" font-size="14" lengthAdjust="spacing" textLength="79.6797" x="612.5" y="249.1826">-updateUI()</text></g><!--class AnalyticsManager--><g class="entity" data-entity="AnalyticsManager" data-source-line="21" data-uid="ent0007" id="entity_AnalyticsManager"><rect fill="#F1F1F1" height="64.2969" rx="2.5" ry="2.5" style="stroke:#181818;stroke-width:0.5;" width="156.9404" x="603.5" y="339.5"/><ellipse cx="618.5" cy="355.5" fill="#ADD1B2" rx="11" ry="11" style="stroke:#181818;stroke-width:1;"/><path d="M621.4688,361.1406 Q620.8906,361.4375 620.25,361.5781 Q619.6094,361.7344 618.9063,361.7344 Q616.4063,361.7344 615.0781,360.0938 Q613.7656,358.4375 613.7656,355.3125 Q613.7656,352.1875 615.0781,350.5313 Q616.4063,348.875 618.9063,348.875 Q619.6094,348.875 620.25,349.0313 Q620.9063,349.1875 621.4688,349.4844 L621.4688,352.2031 Q620.8438,351.625 620.25,351.3594 Q619.6563,351.0781 619.0313,351.0781 Q617.6875,351.0781 617,352.1563 Q616.3125,353.2188 616.3125,355.3125 Q616.3125,357.4063 617,358.4844 Q617.6875,359.5469 619.0313,359.5469 Q619.6563,359.5469 620.25,359.2813 Q620.8438,359 621.4688,358.4219 L621.4688,361.1406 Z " fill="#000000"/><text fill="#000000" font-family="sans-serif" font-size="14" lengthAdjust="spacing" textLength="124.9404" x="632.5" y="360.3467">AnalyticsManager</text><line style="stroke:#181818;stroke-width:0.5;" x1="604.5" x2="759.4404" y1="371.5" y2="371.5"/><line style="stroke:#181818;stroke-width:0.5;" x1="604.5" x2="759.4404" y1="379.5" y2="379.5"/><text fill="#000000" font-family="sans-serif" font-size="14" lengthAdjust="spacing" textLength="117.749" x="609.5" y="396.4951">+updateCharts()</text></g><!--class FilterManager--><g class="entity" data-entity="FilterManager" data-source-line="24" data-uid="ent0008" id="entity_FilterManager"><rect fill="#F1F1F1" height="64.2969" rx="2.5" ry="2.5" style="stroke:#181818;stroke-width:0.5;" width="129.0566" x="439.5" y="339.5"/><ellipse cx="454.5" cy="355.5" fill="#ADD1B2" rx="11" ry="11" style="stroke:#181818;stroke-width:1;"/><path d="M457.4688,361.1406 Q456.8906,361.4375 456.25,361.5781 Q455.6094,361.7344 454.9063,361.7344 Q452.4063,361.7344 451.0781,360.0938 Q449.7656,358.4375 449.7656,355.3125 Q449.7656,352.1875 451.0781,350.5313 Q452.4063,348.875 454.9063,348.875 Q455.6094,348.875 456.25,349.0313 Q456.9063,349.1875 457.4688,349.4844 L457.4688,352.2031 Q456.8438,351.625 456.25,351.3594 Q455.6563,351.0781 455.0313,351.0781 Q453.6875,351.0781 453,352.1563 Q452.3125,353.2188 452.3125,355.3125 Q452.3125,357.4063 453,358.4844 Q453.6875,359.5469 455.0313,359.5469 Q455.6563,359.5469 456.25,359.2813 Q456.8438,359 457.4688,358.4219 L457.4688,361.1406 Z " fill="#000000"/><text fill="#000000" font-family="sans-serif" font-size="14" lengthAdjust="spacing" textLength="97.0566" x="468.5" y="360.3467">FilterManager</text><line style="stroke:#181818;stroke-width:0.5;" x1="440.5" x2="567.5566" y1="371.5" y2="371.5"/><line style="stroke:#181818;stroke-width:0.5;" x1="440.5" x2="567.5566" y1="379.5" y2="379.5"/><text fill="#000000" font-family="sans-serif" font-size="14" lengthAdjust="spacing" textLength="96.8721" x="445.5" y="396.4951">+applyFilter()</text></g><!--class PaginationManager--><g class="entity" data-entity="PaginationManager" data-source-line="27" data-uid="ent0009" id="entity_PaginationManager"><rect fill="#F1F1F1" height="64.2969" rx="2.5" ry="2.5" style="stroke:#181818;stroke-width:0.5;" width="167.4336" x="237.5" y="339.5"/><ellipse cx="252.5" cy="355.5" fill="#ADD1B2" rx="11" ry="11" style="stroke:#181818;stroke-width:1;"/><path d="M255.4688,361.1406 Q254.8906,361.4375 254.25,361.5781 Q253.6094,361.7344 252.9063,361.7344 Q250.4063,361.7344 249.0781,360.0938 Q247.7656,358.4375 247.7656,355.3125 Q247.7656,352.1875 249.0781,350.5313 Q250.4063,348.875 252.9063,348.875 Q253.6094,348.875 254.25,349.0313 Q254.9063,349.1875 255.4688,349.4844 L255.4688,352.2031 Q254.8438,351.625 254.25,351.3594 Q253.6563,351.0781 253.0313,351.0781 Q251.6875,351.0781 251,352.1563 Q250.3125,353.2188 250.3125,355.3125 Q250.3125,357.4063 251,358.4844 Q251.6875,359.5469 253.0313,359.5469 Q253.6563,359.5469 254.25,359.2813 Q254.8438,359 255.4688,358.4219 L255.4688,361.1406 Z " fill="#000000"/><text fill="#000000" font-family="sans-serif" font-size="14" lengthAdjust="spacing" textLength="135.4336" x="266.5" y="360.3467">PaginationManager</text><line style="stroke:#181818;stroke-width:0.5;" x1="238.5" x2="403.9336" y1="371.5" y2="371.5"/><line style="stroke:#181818;stroke-width:0.5;" x1="238.5" x2="403.9336" y1="379.5" y2="379.5"/><text fill="#000000" font-family="sans-serif" font-size="14" lengthAdjust="spacing" textLength="119.3281" x="243.5" y="396.4951">+getPageItems()</text></g><!--class ToastManager--><g class="entity" data-entity="ToastManager" data-source-line="30" data-uid="ent0010" id="entity_ToastManager"><rect fill="#F1F1F1" height="64.2969" rx="2.5" ry="2.5" style="stroke:#181818;stroke-width:0.5;" width="131.8457" x="70" y="339.5"/><ellipse cx="85" cy="355.5" fill="#ADD1B2" rx="11" ry="11" style="stroke:#181818;stroke-width:1;"/><path d="M87.9688,361.1406 Q87.3906,361.4375 86.75,361.5781 Q86.1094,361.7344 85.4063,361.7344 Q82.9063,361.7344 81.5781,360.0938 Q80.2656,358.4375 80.2656,355.3125 Q80.2656,352.1875 81.5781,350.5313 Q82.9063,348.875 85.4063,348.875 Q86.1094,348.875 86.75,349.0313 Q87.4063,349.1875 87.9688,349.4844 L87.9688,352.2031 Q87.3438,351.625 86.75,351.3594 Q86.1563,351.0781 85.5313,351.0781 Q84.1875,351.0781 83.5,352.1563 Q82.8125,353.2188 82.8125,355.3125 Q82.8125,357.4063 83.5,358.4844 Q84.1875,359.5469 85.5313,359.5469 Q86.1563,359.5469 86.75,359.2813 Q87.3438,359 87.9688,358.4219 L87.9688,361.1406 Z " fill="#000000"/><text fill="#000000" font-family="sans-serif" font-size="14" lengthAdjust="spacing" textLength="99.8457" x="99" y="360.3467">ToastManager</text><line style="stroke:#181818;stroke-width:0.5;" x1="71" x2="200.8457" y1="371.5" y2="371.5"/><line style="stroke:#181818;stroke-width:0.5;" x1="71" x2="200.8457" y1="379.5" y2="379.5"/><text fill="#000000" font-family="sans-serif" font-size="14" lengthAdjust="spacing" textLength="58.8369" x="76" y="396.4951">+show()</text></g><!--class TaskLocalStorage--><g class="entity" data-entity="TaskLocalStorage" data-source-line="35" data-uid="ent0012" id="entity_TaskLocalStorage"><rect fill="#F1F1F1" height="80.5938" rx="2.5" ry="2.5" style="stroke:#181818;stroke-width:0.5;" width="155.8398" x="1026" y="331"/><ellipse cx="1041" cy="347" fill="#ADD1B2" rx="11" ry="11" style="stroke:#181818;stroke-width:1;"/><path d="M1043.9688,352.6406 Q1043.3906,352.9375 1042.75,353.0781 Q1042.1094,353.2344 1041.4063,353.2344 Q1038.9063,353.2344 1037.5781,351.5938 Q1036.2656,349.9375 1036.2656,346.8125 Q1036.2656,343.6875 1037.5781,342.0313 Q1038.9063,340.375 1041.4063,340.375 Q1042.1094,340.375 1042.75,340.5313 Q1043.4063,340.6875 1043.9688,340.9844 L1043.9688,343.7031 Q1043.3438,343.125 1042.75,342.8594 Q1042.1563,342.5781 1041.5313,342.5781 Q1040.1875,342.5781 1039.5,343.6563 Q1038.8125,344.7188 1038.8125,346.8125 Q1038.8125,348.9063 1039.5,349.9844 Q1040.1875,351.0469 1041.5313,351.0469 Q1042.1563,351.0469 1042.75,350.7813 Q1043.3438,350.5 1043.9688,349.9219 L1043.9688,352.6406 Z " fill="#000000"/><text fill="#000000" font-family="sans-serif" font-size="14" lengthAdjust="spacing" textLength="123.8398" x="1055" y="351.8467">TaskLocalStorage</text><line style="stroke:#181818;stroke-width:0.5;" x1="1027" x2="1180.8398" y1="363" y2="363"/><line style="stroke:#181818;stroke-width:0.5;" x1="1027" x2="1180.8398" y1="371" y2="371"/><text fill="#000000" font-family="sans-serif" font-size="14" lengthAdjust="spacing" textLength="63" x="1032" y="387.9951">+getAll()</text><text fill="#000000" font-family="sans-serif" font-size="14" lengthAdjust="spacing" textLength="55.4258" x="1032" y="404.292">+save()</text></g><!--class TaskSessionStorage--><g class="entity" data-entity="TaskSessionStorage" data-source-line="39" data-uid="ent0013" id="entity_TaskSessionStorage"><rect fill="#F1F1F1" height="80.5938" rx="2.5" ry="2.5" style="stroke:#181818;stroke-width:0.5;" width="172.7246" x="817.5" y="331"/><ellipse cx="832.5" cy="347" fill="#ADD1B2" rx="11" ry="11" style="stroke:#181818;stroke-width:1;"/><path d="M835.4688,352.6406 Q834.8906,352.9375 834.25,353.0781 Q833.6094,353.2344 832.9063,353.2344 Q830.4063,353.2344 829.0781,351.5938 Q827.7656,349.9375 827.7656,346.8125 Q827.7656,343.6875 829.0781,342.0313 Q830.4063,340.375 832.9063,340.375 Q833.6094,340.375 834.25,340.5313 Q834.9063,340.6875 835.4688,340.9844 L835.4688,343.7031 Q834.8438,343.125 834.25,342.8594 Q833.6563,342.5781 833.0313,342.5781 Q831.6875,342.5781 831,343.6563 Q830.3125,344.7188 830.3125,346.8125 Q830.3125,348.9063 831,349.9844 Q831.6875,351.0469 833.0313,351.0469 Q833.6563,351.0469 834.25,350.7813 Q834.8438,350.5 835.4688,349.9219 L835.4688,352.6406 Z " fill="#000000"/><text fill="#000000" font-family="sans-serif" font-size="14" lengthAdjust="spacing" textLength="140.7246" x="846.5" y="351.8467">TaskSessionStorage</text><line style="stroke:#181818;stroke-width:0.5;" x1="818.5" x2="989.2246" y1="363" y2="363"/><line style="stroke:#181818;stroke-width:0.5;" x1="818.5" x2="989.2246" y1="371" y2="371"/><text fill="#000000" font-family="sans-serif" font-size="14" lengthAdjust="spacing" textLength="45.6436" x="823.5" y="387.9951">+get()</text><text fill="#000000" font-family="sans-serif" font-size="14" lengthAdjust="spacing" textLength="44.0508" x="823.5" y="404.292">+set()</text></g><!--class ExpressApp--><g class="entity" data-entity="ExpressApp" data-source-line="48" data-uid="ent0015" id="entity_ExpressApp"><rect fill="#F1F1F1" height="96.8906" rx="2.5" ry="2.5" style="stroke:#181818;stroke-width:0.5;" width="124.2666" x="1310" y="143"/><ellipse cx="1329.4736" cy="159" fill="#ADD1B2" rx="11" ry="11" style="stroke:#181818;stroke-width:1;"/><path d="M1332.4424,164.6406 Q1331.8643,164.9375 1331.2236,165.0781 Q1330.583,165.2344 1329.8799,165.2344 Q1327.3799,165.2344 1326.0518,163.5938 Q1324.7393,161.9375 1324.7393,158.8125 Q1324.7393,155.6875 1326.0518,154.0313 Q1327.3799,152.375 1329.8799,152.375 Q1330.583,152.375 1331.2236,152.5313 Q1331.8799,152.6875 1332.4424,152.9844 L1332.4424,155.7031 Q1331.8174,155.125 1331.2236,154.8594 Q1330.6299,154.5781 1330.0049,154.5781 Q1328.6611,154.5781 1327.9736,155.6563 Q1327.2861,156.7188 1327.2861,158.8125 Q1327.2861,160.9063 1327.9736,161.9844 Q1328.6611,163.0469 1330.0049,163.0469 Q1330.6299,163.0469 1331.2236,162.7813 Q1331.8174,162.5 1332.4424,161.9219 L1332.4424,164.6406 Z " fill="#000000"/><text fill="#000000" font-family="sans-serif" font-size="14" lengthAdjust="spacing" textLength="82.3252" x="1344.4678" y="163.8467">ExpressApp</text><line style="stroke:#181818;stroke-width:0.5;" x1="1311" x2="1433.2666" y1="175" y2="175"/><text fill="#000000" font-family="sans-serif" font-size="14" font-weight="bold" lengthAdjust="spacing" textLength="68.708" x="1316" y="191.9951">server.js</text><line style="stroke:#181818;stroke-width:1;" x1="1311" x2="1433.2666" y1="199.2969" y2="199.2969"/><text fill="#000000" font-family="sans-serif" font-size="14" lengthAdjust="spacing" textLength="112.2666" x="1316" y="216.292">+GET /api/ksuid</text><text fill="#000000" font-family="sans-serif" font-size="14" lengthAdjust="spacing" textLength="96.332" x="1316" y="232.5889">+listen(3000)</text></g><!--class KSUIDLib--><g class="entity" data-entity="KSUIDLib" data-source-line="55" data-uid="ent0017" id="entity_KSUIDLib"><rect fill="#F1F1F1" height="80.5938" rx="2.5" ry="2.5" style="stroke:#181818;stroke-width:0.5;" width="122.6943" x="1310.5" y="331"/><ellipse cx="1337.6025" cy="347" fill="#ADD1B2" rx="11" ry="11" style="stroke:#181818;stroke-width:1;"/><path d="M1340.5713,352.6406 Q1339.9932,352.9375 1339.3525,353.0781 Q1338.7119,353.2344 1338.0088,353.2344 Q1335.5088,353.2344 1334.1807,351.5938 Q1332.8682,349.9375 1332.8682,346.8125 Q1332.8682,343.6875 1334.1807,342.0313 Q1335.5088,340.375 1338.0088,340.375 Q1338.7119,340.375 1339.3525,340.5313 Q1340.0088,340.6875 1340.5713,340.9844 L1340.5713,343.7031 Q1339.9463,343.125 1339.3525,342.8594 Q1338.7588,342.5781 1338.1338,342.5781 Q1336.79,342.5781 1336.1025,343.6563 Q1335.415,344.7188 1335.415,346.8125 Q1335.415,348.9063 1336.1025,349.9844 Q1336.79,351.0469 1338.1338,351.0469 Q1338.7588,351.0469 1339.3525,350.7813 Q1339.9463,350.5 1340.5713,349.9219 L1340.5713,352.6406 Z " fill="#000000"/><text fill="#000000" font-family="sans-serif" font-size="14" lengthAdjust="spacing" textLength="63.7998" x="1354.292" y="351.8467">KSUIDLib</text><line style="stroke:#181818;stroke-width:0.5;" x1="1311.5" x2="1432.1943" y1="363" y2="363"/><text fill="#000000" font-family="sans-serif" font-size="14" font-weight="bold" lengthAdjust="spacing" textLength="42.4307" x="1316.5" y="379.9951">ksuid</text><line style="stroke:#181818;stroke-width:1;" x1="1311.5" x2="1432.1943" y1="387.2969" y2="387.2969"/><text fill="#000000" font-family="sans-serif" font-size="14" lengthAdjust="spacing" textLength="110.6943" x="1316.5" y="404.292">+randomSync()</text></g><!--link TaskTracker to AnalyticsManager--><g class="link" data-entity-1="TaskTracker" data-entity-2="AnalyticsManager" data-source-line="63" data-uid="lnk18" id="link_TaskTracker_AnalyticsManager"><path codeLine="63" d="M656.83,256.23 C656.83,284.45 656.83,310.28 656.83,333.33" fill="none" id="TaskTracker-to-AnalyticsManager" style="stroke:#181818;stroke-width:1;"/><polygon fill="#181818" points="656.83,339.33,660.83,330.33,656.83,334.33,652.83,330.33,656.83,339.33" style="stroke:#181818;stroke-width:1;"/></g><!--link TaskTracker to FilterManager--><g class="link" data-entity-1="TaskTracker" data-entity-2="FilterManager" data-source-line="64" data-uid="lnk19" id="link_TaskTracker_FilterManager"><path codeLine="64" d="M606.25,224 C557.81,224 504,224 504,224 C504,224 504,290.11 504,333.49" fill="none" id="TaskTracker-to-FilterManager" style="stroke:#181818;stroke-width:1;"/><polygon fill="#181818" points="504,339.49,508,330.49,504,334.49,500,330.49,504,339.49" style="stroke:#181818;stroke-width:1;"/></g><!--link TaskTracker to PaginationManager--><g class="link" data-entity-1="TaskTracker" data-entity-2="PaginationManager" data-source-line="65" data-uid="lnk20" id="link_TaskTracker_PaginationManager"><path codeLine="65" d="M606.32,192 C500.47,192 321,192 321,192 C321,192 321,281.78 321,333.41" fill="none" id="TaskTracker-to-PaginationManager" style="stroke:#181818;stroke-width:1;"/><polygon fill="#181818" points="321,339.41,325,330.41,321,334.41,317,330.41,321,339.41" style="stroke:#181818;stroke-width:1;"/></g><!--link TaskTracker to ToastManager--><g class="link" data-entity-1="TaskTracker" data-entity-2="ToastManager" data-source-line="66" data-uid="lnk21" id="link_TaskTracker_ToastManager"><path codeLine="66" d="M606.37,160 C456.46,160 136,160 136,160 C136,160 136,274.21 136,333.38" fill="none" id="TaskTracker-to-ToastManager" style="stroke:#181818;stroke-width:1;"/><polygon fill="#181818" points="136,339.38,140,330.38,136,334.38,132,330.38,136,339.38" style="stroke:#181818;stroke-width:1;"/></g><!--link TaskTracker to TaskLocalStorage--><g class="link" data-entity-1="TaskTracker" data-entity-2="TaskLocalStorage" data-source-line="67" data-uid="lnk22" id="link_TaskTracker_TaskLocalStorage"><path codeLine="67" d="M757.93,248 C879.43,248 1104,248 1104,248 C1104,248 1104,288.75 1104,324.72" fill="none" id="TaskTracker-to-TaskLocalStorage" style="stroke:#181818;stroke-width:1;"/><polygon fill="#181818" points="1104,330.72,1108,321.72,1104,325.72,1100,321.72,1104,330.72" style="stroke:#181818;stroke-width:1;"/><text fill="#000000" font-family="sans-serif" font-size="13" lengthAdjust="spacing" textLength="50.6226" x="921.33" y="229.0669">persists</text><text fill="#000000" font-family="sans-serif" font-size="13" lengthAdjust="spacing" textLength="34.1377" x="929.5724" y="244.1997">tasks</text></g><!--link TaskTracker to TaskSessionStorage--><g class="link" data-entity-1="TaskTracker" data-entity-2="TaskSessionStorage" data-source-line="68" data-uid="lnk23" id="link_TaskTracker_TaskSessionStorage"><path codeLine="68" d="M707.17,256.14 C707.17,294.62 707.17,336 707.17,336 C707.17,336 758.57,336 811.38,336" fill="none" id="TaskTracker-to-TaskSessionStorage" style="stroke:#181818;stroke-width:1;"/><polygon fill="#181818" points="817.38,336,808.38,332,812.38,336,808.38,340,817.38,336" style="stroke:#181818;stroke-width:1;"/><text fill="#000000" font-family="sans-serif" font-size="13" lengthAdjust="spacing" textLength="50.6226" x="671.34" y="317.0669">persists</text><text fill="#000000" font-family="sans-serif" font-size="13" lengthAdjust="spacing" textLength="33.4395" x="679.9316" y="332.1997">input</text></g><!--link ExpressApp to KSUIDLib--><g class="link" data-entity-1="ExpressApp" data-entity-2="KSUIDLib" data-source-line="71" data-uid="lnk24" id="link_ExpressApp_KSUIDLib"><path codeLine="71" d="M1372,240.21 C1372,268.63 1372,298.07 1372,324.97" fill="none" id="ExpressApp-to-KSUIDLib" style="stroke:#181818;stroke-width:1;stroke-dasharray:7,7;"/><polygon fill="#181818" points="1372,330.97,1376,321.97,1372,325.97,1368,321.97,1372,330.97" style="stroke:#181818;stroke-width:1;"/><text fill="#000000" font-family="sans-serif" font-size="13" lengthAdjust="spacing" textLength="29.7832" x="1342" y="281.6569">uses</text></g><!--link TaskTracker to ExpressApp--><g class="link" data-entity-1="TaskTracker" data-entity-2="ExpressApp" data-source-line="74" data-uid="lnk25" id="link_TaskTracker_ExpressApp"><path codeLine="74" d="M757.82,192 C895.22,192 1176.9,192 1303.7,192" fill="none" id="TaskTracker-to-ExpressApp" style="stroke:#181818;stroke-width:1;stroke-dasharray:7,7;"/><polygon fill="#181818" points="1309.7,192,1300.7,188,1304.7,192,1300.7,196,1309.7,192" style="stroke:#181818;stroke-width:1;"/><text fill="#000000" font-family="sans-serif" font-size="13" lengthAdjust="spacing" textLength="91.019" x="941.76" y="173.0669">HTTP Request</text><text fill="#000000" font-family="sans-serif" font-size="13" lengthAdjust="spacing" textLength="64.0796" x="955.2297" y="188.1997">(Fetch ID)</text></g><!--SRC=[ZLJVRzem47xdhpZrfOagADhUK8L4VstHsWajzAql9haI3sDxFgSic_g_xmXGdAIW-G6H-pv_Tpv_vtFez_kG-aeXt1Zz8XUb4ruQlOdtQ2cr5KwiG4cDlh88nld2X82eJEaXCoihCXy0cH944- -Td9SUaypeLFv160OKRN9y56uXDNmAurI8tApXHIZ2Nk-yBd4gigLOu0Xkb4Jj8PKvrZNQBG1dEo2wTcPDwE8p-Di3Nky4SjcWbFlmPjKrmapGSkQOXIx0DkjgFWx0gylvk05pzl3p0gIMFefRmKBeNE4appTIBRGF2_IRU997COn0KAMp5gEqkV3ub0HRttg7tyRnLaBpVqVTGqwqK9MN6JrkAQsJNkpIt1J2UUgaEkZSI-NH7HCHrgfgIpcXCHLyvRNBZkbmLvY4YSVLgM9cHf0_fa65MVzFpyWRnnyV- -B1P4AbMyP7LKwKwbmuYLSyLJJBfaZ4npyXt5LjnFQdUUlCHuhkbRlHdOyT47tdgHlyfFVvs5PrzziwBcfYRL0D-v_gNSnlk3zm_WLykPl1fR3oSacbp0D0IVAeey_3uJ0EkXza_PO-9RSFSjxCMUiSp-TueCmgvKc9udORVg2gZKM5j0JHxar8D1kI1o2kEnBEUxy_xen6Xz3mV0VjkBd326tQ1FcPqnj2ssaZi3p5t3vwrfv1EhgjvQHm8p-dfJ_Ic9qPceq9F30OZ0-NCuAIaFPAQSMtke9hK-fSk8eDXNvjtBBRt86JYyApKY0yWg-psPJB-LKY-MSTtQFF2aXkuty0]--></g></svg>